<?xml version="1.0" encoding="UTF-8"?>
<svg id="Layer_1" data-name="Layer 1" xmlns="http://www.w3.org/2000/svg" viewBox="0 0 1080 1080">
  <defs>
    <style>
      .cls-1 {
        fill: #010101;
      }

      .cls-2 {
        fill: #fff;
      }

      .cls-3 {
        fill: #da232a;
      }
    </style>
  </defs>
  <rect class="cls-1" x="-52.51" y="-52.51" width="1185.01" height="1185.01"/>
  <g>
    <polygon class="cls-2" points="544.27 626.41 212.73 919.1 212.46 442.07 365.14 441.96 366.33 550.42 807.82 160.9 808.15 393.7 679.86 506.55 867.81 798.19 655.92 798.91 544.27 626.41"/>
    <path class="cls-3" d="M319.42,351.7c-10.92,19.24-27.67,48.11-33.85,38.23l-35.44-56.55c-15.61-24.91-29.37-50.86-36.05-80.1-11.07-48.42,28.44-92.43,76.14-92.28,47.84.15,88.04,45.55,75.8,93.9-9.06,35.8-28.78,65.43-46.59,96.8ZM326.88,236.06c0-20.28-16.44-36.72-36.72-36.72s-36.72,16.44-36.72,36.72,16.44,36.72,36.72,36.72,36.72-16.44,36.72-36.72Z"/>
  </g>
</svg>