<?xml version="1.0" encoding="UTF-8"?>
<svg id="Layer_1" data-name="Layer 1" xmlns="http://www.w3.org/2000/svg" viewBox="0 0 1080 1080">
  <defs>
    <style>
      .cls-1 {
        fill: #fff;
      }

      .cls-2 {
        fill: #da232a;
      }
    </style>
  </defs>
  <path class="cls-1" d="M978.53,414.65v147.91c-.99.8-1.02,2-1.21,3.3-5.48,38.18-31.98,69.87-66.09,83.26-38.63,15.17-81.04,7.12-110.93-19.86-22.51-20.32-35.22-48.6-35.23-78.81l-.04-135.79h68.23s.24,136.18.24,136.18c.04,21,18.39,36.79,38.43,36.42s37.29-16.37,37.31-37.08l.11-135.52,69.18-.02Z"/>
  <polygon class="cls-2" points="623.1 578.88 472.76 711.29 472.75 414.69 541.95 414.67 542.02 545.35 742.6 368.71 742.67 473.49 684.34 524.86 769.56 656.7 673.63 656.86 623.1 578.88"/>
  <rect class="cls-1" x="295.35" y="500.7" width="241.26" height="69.17" transform="translate(-119.32 951.25) rotate(-90)"/>
  <path class="cls-1" d="M239.57,656.61l-117.72.2-.02-205.55-20.37-36.77,141.36.58c67.74,2.11,119.53,60.13,116.14,126.98-3.23,63.34-55.27,113.72-119.4,114.55ZM233.3,585.69c28.04-1.59,48.44-25.73,47.24-52.47-1.22-27.2-23.46-48.68-51.07-48.68h-38.45s0,101.42,0,101.42l42.27-.27Z"/>
</svg>